<svg width="1600" height="180" viewBox="0 0 1600 180" fill="none" xmlns="http://www.w3.org/2000/svg">
  <rect width="1600" height="180" fill="#FFFFFF"/>
  <rect y="1" width="1600" height="1" fill="#D8D0C6"/>
  <g stroke="#6D6259" stroke-width="2">
    <!-- Row 1 -->
    <path d="M8 48L24 32L40 48L24 64L8 48Z" />
    <path d="M56 48L72 32L88 48L72 64L56 48Z" />
    <path d="M104 48L120 32L136 48L120 64L104 48Z" />
    <path d="M152 48L168 32L184 48L168 64L152 48Z" />
    <path d="M200 48L216 32L232 48L216 64L200 48Z" />
    <path d="M248 48L264 32L280 48L264 64L248 48Z" />
    <path d="M296 48L312 32L328 48L312 64L296 48Z" />
    <path d="M344 48L360 32L376 48L360 64L344 48Z" />
    <path d="M392 48L408 32L424 48L408 64L392 48Z" />
    <path d="M440 48L456 32L472 48L456 64L440 48Z" />
    <path d="M488 48L504 32L520 48L504 64L488 48Z" />
    <path d="M536 48L552 32L568 48L552 64L536 48Z" />
    <path d="M584 48L600 32L616 48L600 64L584 48Z" />
    <path d="M632 48L648 32L664 48L648 64L632 48Z" />
    <path d="M680 48L696 32L712 48L696 64L680 48Z" />
    <path d="M728 48L744 32L760 48L744 64L728 48Z" />
    <path d="M776 48L792 32L808 48L792 64L776 48Z" />
    <path d="M824 48L840 32L856 48L840 64L824 48Z" />
    <path d="M872 48L888 32L904 48L888 64L872 48Z" />
    <path d="M920 48L936 32L952 48L936 64L920 48Z" />
    <path d="M968 48L984 32L1000 48L984 64L968 48Z" />
    <path d="M1016 48L1032 32L1048 48L1032 64L1016 48Z" />
    <path d="M1064 48L1080 32L1096 48L1080 64L1064 48Z" />
    <path d="M1112 48L1128 32L1144 48L1128 64L1112 48Z" />
    <path d="M1160 48L1176 32L1192 48L1176 64L1160 48Z" />
    <path d="M1208 48L1224 32L1240 48L1224 64L1208 48Z" />
    <path d="M1256 48L1272 32L1288 48L1272 64L1256 48Z" />
    <path d="M1304 48L1320 32L1336 48L1320 64L1304 48Z" />
    <path d="M1352 48L1368 32L1384 48L1368 64L1352 48Z" />
    <path d="M1400 48L1416 32L1432 48L1416 64L1400 48Z" />
    <path d="M1448 48L1464 32L1480 48L1464 64L1448 48Z" />
    <path d="M1496 48L1512 32L1528 48L1512 64L1496 48Z" />
    <path d="M1544 48L1560 32L1576 48L1560 64L1544 48Z" />

    <!-- Row 2 -->
    <path d="M32 80L48 64L64 80L48 96L32 80Z" />
    <path d="M80 80L96 64L112 80L96 96L80 80Z" />
    <path d="M128 80L144 64L160 80L144 96L128 80Z" />
    <path d="M176 80L192 64L208 80L192 96L176 80Z" />
    <path d="M224 80L240 64L256 80L240 96L224 80Z" />
    <path d="M272 80L288 64L304 80L288 96L272 80Z" />
    <path d="M320 80L336 64L352 80L336 96L320 80Z" />
    <path d="M368 80L384 64L400 80L384 96L368 80Z" />
    <path d="M416 80L432 64L448 80L432 96L416 80Z" />
    <path d="M464 80L480 64L496 80L480 96L464 80Z" />
    <path d="M512 80L528 64L544 80L528 96L512 80Z" />
    <path d="M560 80L576 64L592 80L576 96L560 80Z" />
    <path d="M608 80L624 64L640 80L624 96L608 80Z" />
    <path d="M656 80L672 64L688 80L672 96L656 80Z" />
    <path d="M704 80L720 64L736 80L720 96L704 80Z" />
    <path d="M752 80L768 64L784 80L768 96L752 80Z" />
    <path d="M800 80L816 64L832 80L816 96L800 80Z" />
    <path d="M848 80L864 64L880 80L864 96L848 80Z" />
    <path d="M896 80L912 64L928 80L912 96L896 80Z" />
    <path d="M944 80L960 64L976 80L960 96L944 80Z" />
    <path d="M992 80L1008 64L1024 80L1008 96L992 80Z" />
    <path d="M1040 80L1056 64L1072 80L1056 96L1040 80Z" />
    <path d="M1088 80L1104 64L1120 80L1104 96L1088 80Z" />
    <path d="M1136 80L1152 64L1168 80L1152 96L1136 80Z" />
    <path d="M1184 80L1200 64L1216 80L1200 96L1184 80Z" />
    <path d="M1232 80L1248 64L1264 80L1248 96L1232 80Z" />
    <path d="M1280 80L1296 64L1312 80L1296 96L1280 80Z" />
    <path d="M1328 80L1344 64L1360 80L1344 96L1328 80Z" />
    <path d="M1376 80L1392 64L1408 80L1392 96L1376 80Z" />
    <path d="M1424 80L1440 64L1456 80L1440 96L1424 80Z" />
    <path d="M1472 80L1488 64L1504 80L1488 96L1472 80Z" />
    <path d="M1520 80L1536 64L1552 80L1536 96L1520 80Z" />

    <!-- Row 3 -->
    <path d="M8 112L24 96L40 112L24 128L8 112Z" />
    <path d="M56 112L72 96L88 112L72 128L56 112Z" />
    <path d="M104 112L120 96L136 112L120 128L104 112Z" />
    <path d="M152 112L168 96L184 112L168 128L152 112Z" />
    <path d="M200 112L216 96L232 112L216 128L200 112Z" />
    <path d="M248 112L264 96L280 112L264 128L248 112Z" />
    <path d="M296 112L312 96L328 112L312 128L296 112Z" />
    <path d="M344 112L360 96L376 112L360 128L344 112Z" />
    <path d="M392 112L408 96L424 112L408 128L392 112Z" />
    <path d="M440 112L456 96L472 112L456 128L440 112Z" />
    <path d="M488 112L504 96L520 112L504 128L488 112Z" />
    <path d="M536 112L552 96L568 112L552 128L536 112Z" />
    <path d="M584 112L600 96L616 112L600 128L584 112Z" />
    <path d="M632 112L648 96L664 112L648 128L632 112Z" />
    <path d="M680 112L696 96L712 112L696 128L680 112Z" />
    <path d="M728 112L744 96L760 112L744 128L728 112Z" />
    <path d="M776 112L792 96L808 112L792 128L776 112Z" />
    <path d="M824 112L840 96L856 112L840 128L824 112Z" />
    <path d="M872 112L888 96L904 112L888 128L872 112Z" />
    <path d="M920 112L936 96L952 112L936 128L920 112Z" />
    <path d="M968 112L984 96L1000 112L984 128L968 112Z" />
    <path d="M1016 112L1032 96L1048 112L1032 128L1016 112Z" />
    <path d="M1064 112L1080 96L1096 112L1080 128L1064 112Z" />
    <path d="M1112 112L1128 96L1144 112L1128 128L1112 112Z" />
    <path d="M1160 112L1176 96L1192 112L1176 128L1160 112Z" />
    <path d="M1208 112L1224 96L1240 112L1224 128L1208 112Z" />
    <path d="M1256 112L1272 96L1288 112L1272 128L1256 112Z" />
    <path d="M1304 112L1320 96L1336 112L1320 128L1304 112Z" />
    <path d="M1352 112L1368 96L1384 112L1368 128L1352 112Z" />
    <path d="M1400 112L1416 96L1432 112L1416 128L1400 112Z" />
    <path d="M1448 112L1464 96L1480 112L1464 128L1448 112Z" />
    <path d="M1496 112L1512 96L1528 112L1512 128L1496 112Z" />
    <path d="M1544 112L1560 96L1576 112L1560 128L1544 112Z" />

    <!-- Row 4 -->
    <path d="M32 144L48 128L64 144L48 160L32 144Z" />
    <path d="M80 144L96 128L112 144L96 160L80 144Z" />
    <path d="M128 144L144 128L160 144L144 160L128 144Z" />
    <path d="M176 144L192 128L208 144L192 160L176 144Z" />
    <path d="M224 144L240 128L256 144L240 160L224 144Z" />
    <path d="M272 144L288 128L304 144L288 160L272 144Z" />
    <path d="M320 144L336 128L352 144L336 160L320 144Z" />
    <path d="M368 144L384 128L400 144L384 160L368 144Z" />
    <path d="M416 144L432 128L448 144L432 160L416 144Z" />
    <path d="M464 144L480 128L496 144L480 160L464 144Z" />
    <path d="M512 144L528 128L544 144L528 160L512 144Z" />
    <path d="M560 144L576 128L592 144L576 160L560 144Z" />
    <path d="M608 144L624 128L640 144L624 160L608 144Z" />
    <path d="M656 144L672 128L688 144L672 160L656 144Z" />
    <path d="M704 144L720 128L736 144L720 160L704 144Z" />
    <path d="M752 144L768 128L784 144L768 160L752 144Z" />
    <path d="M800 144L816 128L832 144L816 160L800 144Z" />
    <path d="M848 144L864 128L880 144L864 160L848 144Z" />
    <path d="M896 144L912 128L928 144L912 160L896 144Z" />
    <path d="M944 144L960 128L976 144L960 160L944 144Z" />
    <path d="M992 144L1008 128L1024 144L1008 160L992 144Z" />
    <path d="M1040 144L1056 128L1072 144L1056 160L1040 144Z" />
    <path d="M1088 144L1104 128L1120 144L1104 160L1088 144Z" />
    <path d="M1136 144L1152 128L1168 144L1152 160L1136 144Z" />
    <path d="M1184 144L1200 128L1216 144L1200 160L1184 144Z" />
    <path d="M1232 144L1248 128L1264 144L1248 160L1232 144Z" />
    <path d="M1280 144L1296 128L1312 144L1296 160L1280 144Z" />
    <path d="M1328 144L1344 128L1360 144L1344 160L1328 144Z" />
    <path d="M1376 144L1392 128L1408 144L1392 160L1376 144Z" />
    <path d="M1424 144L1440 128L1456 144L1440 160L1424 144Z" />
    <path d="M1472 144L1488 128L1504 144L1488 160L1472 144Z" />
    <path d="M1520 144L1536 128L1552 144L1536 160L1520 144Z" />
  </g>
</svg>
